<?xml version="1.0" standalone="no"?><!DOCTYPE svg PUBLIC "-//W3C//DTD SVG 1.1//EN" "http://www.w3.org/Graphics/SVG/1.1/DTD/svg11.dtd"><svg t="1680412034177" class="icon" viewBox="0 0 1024 1024" version="1.1" xmlns="http://www.w3.org/2000/svg" p-id="20054" xmlns:xlink="http://www.w3.org/1999/xlink" width="200" height="200"><path d="M948.777 54.128c-20.694-17.743-48.987-25.259-77.348-20.932l-486.339 75.431c-55.433 8.585-98.889 58.91-98.889 114.581v482.538c-24.833-16.623-54.684-26.393-86.847-26.393-86.336 0.001-156.322 69.989-156.322 156.323 0 86.337 69.986 156.323 156.322 156.323 86.338 0 156.323-69.986 156.323-156.323v-443.747l555.817-86.202v311.001c-24.835-16.621-54.687-26.391-86.845-26.391-86.338 0-156.324 69.983-156.324 156.323 0 86.336 69.986 156.322 156.324 156.322 86.334 0 156.321-69.986 156.321-156.322v-620.423c0-28.294-11.739-54.585-32.194-72.106zM199.353 922.523c-47.902 0-86.846-38.946-86.846-86.846 0-47.902 38.945-86.844 86.846-86.844 47.902 0 86.847 38.942 86.847 86.844 0 47.9-38.946 86.846-86.847 86.846zM355.677 321.621v-98.412c0-21.155 18.727-42.609 40.064-45.919l486.338-75.431c8.618-1.322 16.182 0.475 21.474 5.023 5.188 4.445 7.937 11.143 7.937 19.351v109.186l-555.814 86.201zM824.647 833.504c-47.903 0-86.846-38.945-86.846-86.845 0-47.902 38.944-86.846 86.846-86.846 47.898 0 86.844 38.945 86.844 86.846 0.001 47.901-38.946 86.845-86.844 86.845z" fill="#262635" p-id="20055"></path></svg>