<?xml version="1.0" standalone="no"?><!DOCTYPE svg PUBLIC "-//W3C//DTD SVG 1.1//EN" "http://www.w3.org/Graphics/SVG/1.1/DTD/svg11.dtd"><svg t="1680411541096" class="icon" viewBox="0 0 1025 1024" version="1.1" xmlns="http://www.w3.org/2000/svg" p-id="17611" xmlns:xlink="http://www.w3.org/1999/xlink" width="200.1953125" height="200"><path d="M1018.709333 105.813333l-102.4-102.4s-6.826667-3.413333-10.24-3.413333h-3.413333c-3.413333 0-3.413333 3.413333-6.826667 3.413333l-170.666666 136.533334c-3.413333 3.413333-6.826667 6.826667-6.826667 13.653333v61.44l-184.32 184.32c-20.48-34.133333-61.44-92.16-105.813333-92.16-92.16 0-109.226667 47.786667-126.293334 85.333333-6.826667 13.653333-13.653333 30.72-23.893333 40.96-13.653333 13.653333-37.546667 17.066667-64.853333 17.066667-34.133333 3.413333-75.093333 3.413333-119.466667 30.72-27.306667 17.066667-81.92 68.266667-92.16 150.186667-10.24 85.333333 30.72 177.493333 122.88 269.653333 81.92 81.92 163.84 122.88 238.933333 122.88 10.24 0 20.48 0 30.72-3.413333 75.093333-10.24 119.466667-64.853333 136.533334-92.16 20.48-40.96 27.306667-75.093333 34.133333-105.813334 6.826667-30.72 13.653333-58.026667 30.72-75.093333 6.826667-6.826667 27.306667-20.48 44.373333-34.133333 71.68-47.786667 122.88-88.746667 112.64-126.293334-10.24-27.306667-47.786667-40.96-136.533333-40.96-13.653333 0-17.066667-3.413333-17.066667-3.413333-3.413333-6.826667 3.413333-23.893333 13.653334-37.546667L810.496 307.2h61.44c6.826667 0 10.24-3.413333 13.653333-6.826667l136.533334-170.666666c0-3.413333 3.413333-3.413333 3.413333-6.826667v-3.413333c0-3.413333-3.413333-10.24-6.826667-13.653334z m-706.56 512c6.826667-6.826667 17.066667-6.826667 23.893334 0l68.266666 68.266667c6.826667 6.826667 6.826667 17.066667 0 23.893333-3.413333 3.413333-6.826667 3.413333-13.653333 3.413334s-10.24 0-13.653333-3.413334l-68.266667-68.266666c-3.413333-3.413333-3.413333-17.066667 3.413333-23.893334z m23.893334 296.96c-3.413333 3.413333-6.826667 6.826667-10.24 6.826667-3.413333 0-10.24-3.413333-10.24-6.826667-6.826667 0-6.826667-6.826667-6.826667-10.24s0-10.24 3.413333-10.24c6.826667-6.826667 17.066667-6.826667 23.893334 0 3.413333 3.413333 6.826667 6.826667 6.826666 10.24 0 3.413333-3.413333 10.24-6.826666 10.24z m23.893333-27.306666c-3.413333 0-10.24-3.413333-10.24-6.826667-6.826667 0-6.826667-6.826667-6.826667-10.24s0-10.24 3.413334-10.24c6.826667-6.826667 17.066667-6.826667 23.893333 0 3.413333 3.413333 6.826667 6.826667 6.826667 10.24s0 10.24-6.826667 10.24c-3.413333 3.413333-6.826667 6.826667-10.24 6.826667z m44.373333 27.306666c-3.413333 3.413333-6.826667 6.826667-10.24 6.826667-3.413333 0-10.24-3.413333-10.24-6.826667-6.826667 0-6.826667-6.826667-6.826666-10.24s0-10.24 6.826666-10.24c6.826667-6.826667 17.066667-6.826667 23.893334 0 3.413333 3.413333 6.826667 6.826667 6.826666 10.24-3.413333 3.413333-6.826667 10.24-10.24 10.24z m34.133334-34.133333c-3.413333 3.413333-6.826667 6.826667-10.24 6.826667-3.413333 0-10.24-3.413333-10.24-6.826667-6.826667 0-6.826667-6.826667-6.826667-10.24s0-10.24 6.826667-10.24c6.826667-6.826667 17.066667-6.826667 23.893333 0 3.413333 3.413333 6.826667 6.826667 6.826667 10.24-3.413333 3.413333-6.826667 10.24-10.24 10.24z m34.133333-235.52c-3.413333 3.413333-6.826667 3.413333-13.653333 3.413333s-10.24 0-13.653334-3.413333l-68.266666-68.266667c-6.826667-6.826667-6.826667-17.066667 0-23.893333s17.066667-6.826667 23.893333 0l68.266667 68.266667c10.24 3.413333 10.24 17.066667 3.413333 23.893333z" fill="" p-id="17612"></path></svg>