<?xml version="1.0" standalone="no"?><!DOCTYPE svg PUBLIC "-//W3C//DTD SVG 1.1//EN" "http://www.w3.org/Graphics/SVG/1.1/DTD/svg11.dtd"><svg t="1680410698968" class="icon" viewBox="0 0 1024 1024" version="1.1" xmlns="http://www.w3.org/2000/svg" p-id="10880" xmlns:xlink="http://www.w3.org/1999/xlink" width="200" height="200"><path d="M279.272727 228.495868c12.694215 0 21.157025-8.46281 21.157025-21.157025V169.256198c0-4.231405 4.231405-8.46281 8.46281-8.46281s8.46281 4.231405 8.46281 8.46281v38.082645c0 12.694215 8.46281 21.157025 21.157025 21.157025s21.157025-8.46281 21.157024-21.157025V169.256198c0-29.619835-21.157025-50.77686-50.776859-55.008264-21.157025 4.231405-46.545455 25.38843-46.545455 55.008264v38.082645c-4.231405 12.694215 4.231405 21.157025 16.92562 21.157025zM279.272727 380.826446c12.694215 0 21.157025-8.46281 21.157025-16.92562v-38.082644c0-4.231405 4.231405-8.46281 8.46281-8.46281s8.46281 4.231405 8.46281 8.46281v38.082644c0 12.694215 8.46281 21.157025 21.157025 21.157025s21.157025-8.46281 21.157024-21.157025v-38.082644C368.132231 296.198347 342.743802 270.809917 313.123967 270.809917c-29.619835 0-50.77686 21.157025-55.008265 50.77686v38.082644c0 12.694215 8.46281 21.157025 21.157025 21.157025z" p-id="10881"></path><path d="M706.644628 664.330579l-97.322314-401.983472c33.85124-25.38843 50.77686-63.471074 50.77686-105.785124 0-76.165289-63.471074-143.867769-139.636364-143.867768-88.859504 0-139.636364 46.545455-139.636364 131.173554v4.231405L363.900826 465.454545c0-8.46281-4.231405-16.92562-12.694214-25.388429-8.46281-8.46281-21.157025-12.694215-38.082645-16.92562-29.619835 0-50.77686 21.157025-55.008265 50.776859v38.082645c0 12.694215 8.46281 21.157025 21.157025 21.157025s21.157025-8.46281 21.157025-21.157025v-38.082645c0-4.231405 4.231405-8.46281 8.46281-8.46281s4.231405 0 8.46281 4.231405c0 0 4.231405 4.231405 4.231405 8.46281v38.082645c0 12.694215 8.46281 21.157025 21.157025 21.157025 8.46281 0 12.694215-4.231405 16.925619-8.46281l-4.231404 76.165289c-8.46281-16.92562-25.38843-25.38843-42.31405-25.38843-29.619835 0-50.77686 21.157025-55.008265 50.77686v38.082644c0 12.694215 8.46281 21.157025 21.157025 21.157025s21.157025-8.46281 21.157025-21.157025v-38.082644c0-4.231405 8.46281-8.46281 8.46281-8.46281 4.231405 0 8.46281 4.231405 8.46281 8.46281v38.082644c0 12.694215 8.46281 21.157025 21.157025 21.157025H342.743802v8.46281c0 33.85124 29.619835 63.471074 67.702479 63.471075h16.92562v232.727272c0 12.694215 8.46281 21.157025 21.157025 21.157025h169.256198c12.694215 0 21.157025-8.46281 21.157025-21.157025V761.652893h16.92562c38.082645 0 67.702479-25.38843 67.702479-59.23967 0-21.157025-8.46281-29.619835-16.92562-38.082644zM596.628099 973.22314h-126.942149v-84.628099h126.942149v84.628099z m0-126.942148h-126.942149v-84.628099h126.942149v84.628099z m59.23967-126.942149H410.446281c-12.694215 0-25.38843-4.231405-25.38843-21.157025 0-4.231405 0-4.231405 4.231405-8.46281s4.231405-8.46281 4.231405-12.694215l25.38843-478.14876h42.314049c0-4.231405 8.46281-4.231405 8.46281 0h42.31405c0-25.38843-21.157025-46.545455-46.545455-46.545454-25.38843 0-42.31405 16.92562-46.545454 42.314049v-42.314049-4.231405c0-63.471074 33.85124-93.090909 97.322314-93.09091 55.008264 0 97.322314 46.545455 97.322314 101.553719 0 29.619835-16.92562 59.239669-42.31405 80.396695-8.46281 4.231405-12.694215 12.694215-8.462809 21.157024l101.553719 423.140496c0 4.231405 4.231405 8.46281 8.462809 12.694215 8.46281 8.46281 8.46281 8.46281 8.46281 12.694215 0 12.694215-21.157025 12.694215-25.388429 12.694215z" p-id="10882"></path><path d="M554.31405 512c8.46281 0 16.92562-8.46281 21.157024-12.694215 4.231405-8.46281 4.231405-16.92562 4.231405-25.38843-4.231405-16.92562-16.92562-25.38843-33.851239-25.388429h-4.231405c-8.46281 0-16.92562 8.46281-21.157025 12.694214-4.231405 8.46281-8.46281 16.92562-4.231405 25.38843 4.231405 16.92562 16.92562 25.38843 33.85124 25.38843h4.231405zM571.239669 592.396694c16.92562-4.231405 29.619835-21.157025 25.38843-38.082644-4.231405-16.92562-16.92562-25.38843-33.851239-25.38843H554.31405c-16.92562 4.231405-29.619835 21.157025-25.38843 38.082644 4.231405 16.92562 16.92562 25.38843 33.85124 25.38843h8.462809zM579.702479 609.322314h-8.46281c-16.92562 4.231405-29.619835 21.157025-25.388429 38.082645 4.231405 16.92562 16.92562 25.38843 33.851239 25.388429h8.46281c8.46281 0 16.92562-8.46281 21.157025-12.694214 4.231405-8.46281 4.231405-16.92562 4.231405-25.38843-4.231405-16.92562-16.92562-25.38843-33.85124-25.38843zM461.22314 304.661157c-25.38843 0-46.545455 21.157025-46.545454 46.545455h42.31405c0-4.231405 8.46281-4.231405 8.462809 0h42.31405c0-29.619835-21.157025-46.545455-46.545455-46.545455zM461.22314 452.760331c-25.38843 0-46.545455 21.157025-46.545454 46.545454h42.31405c0-4.231405 8.46281-4.231405 8.462809 0h42.31405c0-25.38843-21.157025-46.545455-46.545455-46.545454zM461.22314 605.090909c-25.38843 0-46.545455 21.157025-46.545454 46.545455h42.31405c0-4.231405 8.46281-4.231405 8.462809 0h42.31405c0-25.38843-21.157025-46.545455-46.545455-46.545455z" p-id="10883"></path></svg>