<?xml version="1.0" standalone="no"?><!DOCTYPE svg PUBLIC "-//W3C//DTD SVG 1.1//EN" "http://www.w3.org/Graphics/SVG/1.1/DTD/svg11.dtd"><svg t="1680412006628" class="icon" viewBox="0 0 1024 1024" version="1.1" xmlns="http://www.w3.org/2000/svg" p-id="18857" xmlns:xlink="http://www.w3.org/1999/xlink" width="200" height="200"><path d="M844.8 384H179.2v166.4h665.6z m-89.6 217.6v104.576A33.28 33.28 0 0 1 729.6 742.4v102.4h115.2V601.6z m-102.4 0h-89.6v104.576A33.28 33.28 0 0 1 537.6 742.4v102.4h140.8v-102.4h2.56c-16.256 0-27.264-15.744-28.16-33.92V601.6z m-192 0h-89.6v104.576A33.28 33.28 0 0 1 345.6 742.4v102.4h140.8v-102.4h2.56c-16.256 0-27.264-15.744-28.16-33.92V601.6z m-192 0h-89.6v243.2h115.2v-102.4h2.56c-16.256 0-27.264-15.744-28.16-33.92V601.6z m627.2 243.2a51.2 51.2 0 0 1-51.2 51.2H179.2a51.2 51.2 0 0 1-51.2-51.2V384a51.2 51.2 0 0 1 51.2-51.2h272.768a122.88 122.88 0 0 1 122.752-91.52h4.096c42.112 0 68.48-28.16 81.536-92.672a25.6 25.6 0 0 1 50.176 9.984c-17.024 84.864-60.416 132.096-128 133.76h-3.84c-35.2 0-58.24 12.8-71.936 40.32H844.8a51.2 51.2 0 0 1 51.2 51.2z" fill="#333333" p-id="18858"></path></svg>