<?xml version="1.0" standalone="no"?><!DOCTYPE svg PUBLIC "-//W3C//DTD SVG 1.1//EN" "http://www.w3.org/Graphics/SVG/1.1/DTD/svg11.dtd"><svg t="1680410620096" class="icon" viewBox="0 0 1024 1024" version="1.1" xmlns="http://www.w3.org/2000/svg" p-id="5309" xmlns:xlink="http://www.w3.org/1999/xlink" width="200" height="200"><path d="M0.307883 515.413333v116.053334c0 78.506667 276.48 136.533333 512 136.533333s512-58.026667 512-136.533333v-116.053334c-92.16 88.746667-348.16 116.053333-512 116.053334s-419.84-27.306667-512-116.053334z" fill="" p-id="5310"></path><path d="M0.307883 443.733333c0 98.986667 262.826667 153.6 512 153.6s512-54.613333 512-153.6c0-68.266667-119.466667-112.64-273.066667-136.533333l-191.146667 143.36c-3.413333 3.413333-6.826667 3.413333-10.24 3.413333-6.826667 0-10.24-3.413333-13.653333-6.826666-6.826667-6.826667-3.413333-17.066667 3.413333-23.893334l163.84-122.88 245.76-184.32c6.826667-6.826667 10.24-17.066667 3.413334-23.893333-6.826667-6.826667-17.066667-10.24-23.893334-3.413333l-276.48 208.213333c-44.373333-3.413333-92.16-6.826667-139.946666-6.826667-68.266667 0-139.946667 3.413333-204.8 13.653334l146.773333 98.986666c6.826667 6.826667 10.24 17.066667 3.413333 23.893334-3.413333 3.413333-10.24 6.826667-13.653333 6.826666-3.413333 0-6.826667 0-10.24-3.413333L256.307883 310.613333 27.614549 157.013333c-6.826667-6.826667-20.48-3.413333-23.893333 3.413334-6.826667 10.24-3.413333 20.48 3.413333 23.893333l201.386667 133.12c-119.466667 27.306667-208.213333 68.266667-208.213333 126.293333zM0.307883 692.906667V785.066667c0 75.093333 259.413333 153.6 512 153.6s512-78.506667 512-153.6v-92.16c-95.573333 78.506667-365.226667 109.226667-512 109.226666s-416.426667-27.306667-512-109.226666z" fill="" p-id="5311"></path></svg>